<svg xmlns="http://www.w3.org/2000/svg" width="520" height="520">
<rect width="100%" height="100%" rx="18" fill="#ffffff"/>
<text x="260" y="38" fill="#24292f" font-size="22" font-weight="700" font-family="Arial" text-anchor="middle">GitHub Languages</text>
<polygon points="260.0,233.8 295.7,254.4 295.7,295.6 260.0,316.2 224.3,295.6 224.3,254.4" fill="none" stroke="#d0d7de"/><polygon points="260.0,192.5 331.4,233.8 331.4,316.2 260.0,357.5 188.6,316.2 188.6,233.8" fill="none" stroke="#d0d7de"/><polygon points="260.0,151.2 367.2,213.1 367.2,336.9 260.0,398.8 152.8,336.9 152.8,213.1" fill="none" stroke="#d0d7de"/><polygon points="260.0,110.0 402.9,192.5 402.9,357.5 260.0,440.0 117.1,357.5 117.1,192.5" fill="none" stroke="#d0d7de"/><line x1="260" y1="275" x2="260.0" y2="110.0" stroke="#d0d7de"/><line x1="260" y1="275" x2="402.9" y2="192.5" stroke="#d0d7de"/><line x1="260" y1="275" x2="402.9" y2="357.5" stroke="#d0d7de"/><line x1="260" y1="275" x2="260.0" y2="440.0" stroke="#d0d7de"/><line x1="260" y1="275" x2="117.1" y2="357.5" stroke="#d0d7de"/><line x1="260" y1="275" x2="117.1" y2="192.5" stroke="#d0d7de"/>
<polygon points="260.0,110.0 390.0,199.9 322.9,311.3 260.0,342.6 205.7,306.4 208.6,245.3" fill="#ff4b2b" fill-opacity=".18" stroke="#ff4b2b" stroke-width="3"/>
<circle cx="260.0" cy="110.0" r="4" fill="#ff4b2b"/><circle cx="390.0" cy="199.9" r="4" fill="#ff4b2b"/><circle cx="322.9" cy="311.3" r="4" fill="#ff4b2b"/><circle cx="260.0" cy="342.6" r="4" fill="#ff4b2b"/><circle cx="205.7" cy="306.4" r="4" fill="#ff4b2b"/><circle cx="208.6" cy="245.3" r="4" fill="#ff4b2b"/><text x="260.0" y="72.0" fill="#24292f" font-size="15" font-family="Arial" text-anchor="middle" dominant-baseline="middle">TypeScript</text><text x="435.8" y="173.5" fill="#24292f" font-size="15" font-family="Arial" text-anchor="start" dominant-baseline="middle">JavaScript</text><text x="435.8" y="376.5" fill="#24292f" font-size="15" font-family="Arial" text-anchor="start" dominant-baseline="middle">PHP</text><text x="260.0" y="478.0" fill="#24292f" font-size="15" font-family="Arial" text-anchor="middle" dominant-baseline="middle">Python</text><text x="84.2" y="376.5" fill="#24292f" font-size="15" font-family="Arial" text-anchor="end" dominant-baseline="middle">EJS</text><text x="84.2" y="173.5" fill="#24292f" font-size="15" font-family="Arial" text-anchor="end" dominant-baseline="middle">C#</text>
</svg>