<svg xmlns="http://www.w3.org/2000/svg" width="520" height="520">
<rect width="100%" height="100%" rx="18" fill="#ffffff"/>
<text x="260" y="38" fill="#24292f" font-size="22" font-weight="700" font-family="Arial" text-anchor="middle">GitHub Languages</text>
<polygon points="260.0,233.8 295.7,254.4 295.7,295.6 260.0,316.2 224.3,295.6 224.3,254.4" fill="none" stroke="#d0d7de" stroke-width="1"/><polygon points="260.0,192.5 331.4,233.8 331.4,316.2 260.0,357.5 188.6,316.2 188.6,233.8" fill="none" stroke="#d0d7de" stroke-width="1"/><polygon points="260.0,151.2 367.2,213.1 367.2,336.9 260.0,398.8 152.8,336.9 152.8,213.1" fill="none" stroke="#d0d7de" stroke-width="1"/><polygon points="260.0,110.0 402.9,192.5 402.9,357.5 260.0,440.0 117.1,357.5 117.1,192.5" fill="none" stroke="#d0d7de" stroke-width="1"/><line x1="260" y1="275" x2="260.0" y2="110.0" stroke="#d0d7de"/><line x1="260" y1="275" x2="402.9" y2="192.5" stroke="#d0d7de"/><line x1="260" y1="275" x2="402.9" y2="357.5" stroke="#d0d7de"/><line x1="260" y1="275" x2="260.0" y2="440.0" stroke="#d0d7de"/><line x1="260" y1="275" x2="117.1" y2="357.5" stroke="#d0d7de"/><line x1="260" y1="275" x2="117.1" y2="192.5" stroke="#d0d7de"/>
<polygon points="260.0,129.8 360.0,217.2 342.9,322.8 260.0,360.8 167.1,328.6 202.8,242.0" fill="#ff4b2b" fill-opacity=".18" stroke="#ff4b2b" stroke-width="3"/>
<circle cx="260.0" cy="129.8" r="4" fill="#ff4b2b"/><circle cx="360.0" cy="217.2" r="4" fill="#ff4b2b"/><circle cx="342.9" cy="322.8" r="4" fill="#ff4b2b"/><circle cx="260.0" cy="360.8" r="4" fill="#ff4b2b"/><circle cx="167.1" cy="328.6" r="4" fill="#ff4b2b"/><circle cx="202.8" cy="242.0" r="4" fill="#ff4b2b"/>
<text x="260.0" y="72.0" fill="#24292f" font-size="15" font-family="Arial" text-anchor="middle" dominant-baseline="middle">Python</text><text x="435.8" y="173.5" fill="#24292f" font-size="15" font-family="Arial" text-anchor="start" dominant-baseline="middle">JavaScript</text><text x="435.8" y="376.5" fill="#24292f" font-size="15" font-family="Arial" text-anchor="start" dominant-baseline="middle">PHP</text><text x="260.0" y="478.0" fill="#24292f" font-size="15" font-family="Arial" text-anchor="middle" dominant-baseline="middle">Java</text><text x="84.2" y="376.5" fill="#24292f" font-size="15" font-family="Arial" text-anchor="end" dominant-baseline="middle">HTML/CSS</text><text x="84.2" y="173.5" fill="#24292f" font-size="15" font-family="Arial" text-anchor="end" dominant-baseline="middle">Other</text>
</svg>